Simulation
nRows=23
nColumns=15
endheader
time  TH_x TH_y TH_z SC_y  SC_z  SC_x  AC_y  AC_z  AC_x  GH_y  GH_z  GH_yy  EL_x  PS_y
1.3499999999999996  0.000000  0.000000  0.000000  -35.819520809043716  14.447634544770757  20.24688374729954  67.74322435088604  12.4329145410023  -0.07003662509201052  -18.845728835194983  55.22332722921567  -9.534948578066919  21.314989106024033  120.000000
1.3769999999999996  0.000000  0.000000  0.000000  -35.983314323878844  14.43115638537567  20.77076607651481  67.92087421710241  12.133483578780334  -0.14576789131591816  -18.957495352685704  54.96094932288144  -9.626520310047031  21.409595621629062  120.000000
1.4039999999999997  0.000000  0.000000  0.000000  -36.03996667085234  14.383389814167613  21.16168946115278  68.02995982396943  11.84216498634025  -0.27775605241429036  -19.015591649129394  54.67560954308374  -9.722197183103683  21.48656498662929  120.000000
1.4309999999999996  0.000000  0.000000  0.000000  -35.99544478498296  14.307985232988631  21.423119780581633  68.07238384245419  11.561432470454575  -0.4624471050441968  -19.020760711356115  54.36723018076654  -9.821722212255194  21.5441075748025  120.000000
1.4579999999999995  0.000000  0.000000  0.000000  -35.85268532602548  14.206949099365099  21.555502692922502  68.04993073711981  11.294640523268402  -0.6958884854375358  -18.974515369897123  54.038081507970055  -9.925981159554079  21.58125284870228  120.000000
1.4849999999999997  0.000000  0.000000  0.000000  -35.62149858878854  14.083722828057693  21.56597883979552  67.9655059421854  11.043164502729644  -0.9726649189597445  -18.87660563042502  53.68771777896632  -10.037616901832871  21.597864404108925  120.000000
1.5119999999999996  0.000000  0.000000  0.000000  -35.30772069991341  13.940084938043022  21.457638912428905  67.8215433706499  10.809391290423177  -1.287377101088848  -18.72716232826491  53.31822855317761  -10.160685791473059  21.5943301434581  120.000000
1.5389999999999995  0.000000  0.000000  0.000000  -34.922628690372996  13.779119936958727  21.23954022411376  67.6212364345861  10.59353053132528  -1.6337675250594108  -18.524448156096042  52.9289364383738  -10.300510964878729  21.571259046682115  120.000000
1.5659999999999996  0.000000  0.000000  0.000000  -34.472365538181045  13.602173576831937  20.91573378835379  67.36711854016995  10.396549905791495  -2.006069643990898  -18.26687676954482  52.52154676286615  -10.463265557336484  21.529113251554257  120.000000
1.5929999999999995  0.000000  0.000000  0.000000  -33.96647601741467  13.411451080932345  20.495160183888327  67.06203993615854  10.217348559260929  -2.39834771822025  -17.951546838006564  52.09524196016925  -10.655192091172813  21.467966026639374  120.000000
1.6199999999999997  0.000000  0.000000  0.000000  -33.409163296804415  13.20739577200631  19.98158193345362  66.70839549351155  10.055381604713522  -2.8054138799097403  -17.576015683940646  51.651289276221185  -10.882164256872167  21.38757008692409  120.000000
1.6469999999999996  0.000000  0.000000  0.000000  -32.80692078926337  12.990665576087757  19.3830317602976  66.30876349771663  9.908535641386385  -3.2224624949416056  -17.137957121546133  51.18877161939264  -11.148373689320781  21.287457064551475  120.000000
1.6739999999999995  0.000000  0.000000  0.000000  -32.16197941603564  12.760306389779222  18.703104354494236  65.86580047040121  9.775390099176398  -3.645346295936161  -16.63655115847809  50.70862518188868  -11.45594676583766  21.167634391720835  120.000000
1.7009999999999996  0.000000  0.000000  0.000000  -31.479130268811495  12.515129488173939  17.949644215283108  65.38267927103827  9.653527350456507  -4.070619215819786  -16.07269968042922  50.20992597097628  -11.803609665002096  21.028880049654635  120.000000
1.7279999999999995  0.000000  0.000000  0.000000  -30.760301217464818  12.25256862195393  17.12664594562655  64.86313545777863  9.541035630987858  -4.495354435485004  -15.450094566890213  49.693212257580264  -12.186463595228737  20.873411565426977  120.000000
1.7549999999999994  0.000000  0.000000  0.000000  -30.010848128044433  11.969722347374683  16.242141826204424  64.31161779904798  9.435189536186797  -4.917219248990787  -14.774790561241051  49.157421874255114  -12.595636829954412  20.704828614679855  120.000000
1.7819999999999996  0.000000  0.000000  0.000000  -29.233842900931567  11.662988528738662  15.300811332052263  63.73321411387469  9.33357764894079  -5.334066082040632  -14.055309625907064  48.60289468374091  -13.01892976934597  20.528068035310937  120.000000
1.8089999999999995  0.000000  0.000000  0.000000  -28.435864706026123  11.328977296169045  14.311035566295235  63.13340688486805  9.232780010596937  -5.743927731949178  -13.301222430996498  48.028665386102645  -13.441779255563086  20.34844289098797  120.000000
1.8359999999999994  0.000000  0.000000  0.000000  -27.62123662376524  10.964292731888888  13.278457174858383  62.51764759256956  9.129012489992899  -6.144764265287034  -12.522825133079222  47.43508948391823  -13.848378068413064  20.170926199045653  120.000000
1.8629999999999995  0.000000  0.000000  0.000000  -26.797310296436972  10.566785523902567  12.211722890857867  61.89100605089432  9.017401381695803  -6.534541944766539  -11.72973241789969  46.82137213505906  -14.22275172288163  19.999080960247486  120.000000
1.8899999999999995  0.000000  0.000000  0.000000  -25.969174971306106  10.134704995481679  11.117031527462318  61.257719235297095  8.892884325006676  -6.910922233619509  -10.930616064888381  46.18781895155123  -14.549738730945903  19.83468676897305  120.000000
1.9169999999999996  0.000000  0.000000  0.000000  -25.1443253257261  9.668090739945464  10.002750716403355  60.62114143907156  8.750057265687845  -7.271483338175816  -10.132592840555288  45.533415298002645  -14.815316934527335  19.677588170257092  120.000000
1.9439999999999995  0.000000  0.000000  0.000000  -24.32815203986144  9.167250830327175  8.875405236236526  59.98388876705785  8.584343426721128  -7.613606477092113  -9.341310702278069  44.8576221537527  -15.007229638935891  19.526382595067574  120.000000
